<svg width="32" height="33" viewBox="0 0 32 33" fill="none" xmlns="http://www.w3.org/2000/svg">
<g id="ph:dots-three-outline-fill">
<path id="Vector" d="M19.5 16.5C19.5 17.1922 19.2947 17.8689 18.9101 18.4445C18.5256 19.0201 17.9789 19.4687 17.3394 19.7336C16.6999 19.9985 15.9961 20.0678 15.3172 19.9327C14.6383 19.7977 14.0146 19.4644 13.5251 18.9749C13.0356 18.4854 12.7023 17.8617 12.5673 17.1828C12.4322 16.5039 12.5015 15.8001 12.7664 15.1606C13.0313 14.5211 13.4799 13.9744 14.0555 13.5899C14.6311 13.2053 15.3078 13 16 13C16.9272 13.0033 17.8156 13.3731 18.4712 14.0288C19.1269 14.6844 19.4967 15.5728 19.5 16.5ZM6 13C5.30777 13 4.63108 13.2053 4.05551 13.5899C3.47993 13.9744 3.03133 14.5211 2.76642 15.1606C2.50152 15.8001 2.4322 16.5039 2.56725 17.1828C2.7023 17.8617 3.03564 18.4854 3.52513 18.9749C4.01461 19.4644 4.63825 19.7977 5.31719 19.9327C5.99612 20.0678 6.69985 19.9985 7.33939 19.7336C7.97894 19.4687 8.52556 19.0201 8.91015 18.4445C9.29473 17.8689 9.5 17.1922 9.5 16.5C9.49671 15.5728 9.1269 14.6844 8.47124 14.0288C7.81557 13.3731 6.92725 13.0033 6 13ZM26 13C25.3078 13 24.6311 13.2053 24.0555 13.5899C23.4799 13.9744 23.0313 14.5211 22.7664 15.1606C22.5015 15.8001 22.4322 16.5039 22.5673 17.1828C22.7023 17.8617 23.0356 18.4854 23.5251 18.9749C24.0146 19.4644 24.6383 19.7977 25.3172 19.9327C25.9961 20.0678 26.6999 19.9985 27.3394 19.7336C27.9789 19.4687 28.5256 19.0201 28.9101 18.4445C29.2947 17.8689 29.5 17.1922 29.5 16.5C29.4967 15.5728 29.1269 14.6844 28.4712 14.0288C27.8156 13.3731 26.9272 13.0033 26 13Z" fill="#D9FAE1"/>
</g>
</svg>
