<svg width="32" height="33" viewBox="0 0 32 33" fill="none" xmlns="http://www.w3.org/2000/svg">
<g id="ph:play-fill">
<path id="Vector" d="M30 16.5C29.9992 16.8439 29.9104 17.1818 29.7419 17.4816C29.5734 17.7814 29.3309 18.033 29.0375 18.2125L11.0375 29.2C10.7377 29.39 10.3914 29.4939 10.0365 29.5006C9.68159 29.5072 9.33169 29.4162 9.02499 29.2375C8.71376 29.0667 8.4543 28.8152 8.27392 28.5095C8.09355 28.2037 7.99892 27.855 7.99999 27.5V5.49996C7.99892 5.14496 8.09355 4.79623 8.27392 4.49047C8.4543 4.18471 8.71376 3.93322 9.02499 3.76246C9.33169 3.58376 9.68159 3.49275 10.0365 3.49936C10.3914 3.50597 10.7377 3.60996 11.0375 3.79996L29.0375 14.7875C29.3309 14.9669 29.5734 15.2185 29.7419 15.5183C29.9104 15.8181 29.9992 16.1561 30 16.5Z" fill="#F2FFF5"/>
</g>
</svg>
